<?xml version="1.0" encoding="utf-8"?>
<!-- Generator: Adobe Illustrator 19.2.1, SVG Export Plug-In . SVG Version: 6.00 Build 0)  -->
<svg version="1.1" id="Laag_1" xmlns="http://www.w3.org/2000/svg" xmlns:xlink="http://www.w3.org/1999/xlink" x="0px" y="0px"
	 viewBox="0 0 195.3 138.1" style="enable-background:new 0 0 195.3 138.1;" xml:space="preserve">
<style type="text/css">
	.st0{fill:#FFFFFF;}
</style>
<g>
	<path class="st0" d="M39.9,97.3c0,6.9-1.6,12.3-4.8,15.9c-3.2,3.7-8.1,5.5-14.5,5.5c-6.5,0-11.3-1.9-14.4-5.6
		c-3.1-3.7-4.6-9.1-4.6-16.2V85.3h16.2V100c0,1.9,0.2,3.3,0.7,4c0.5,0.8,1.2,1.1,2.2,1.1c1.2,0,2-0.4,2.4-1.1c0.5-0.8,0.7-2.1,0.7-4
		V23.7h16.2V97.3z"/>
	<path class="st0" d="M92.7,97.3c0,6.9-1.7,12.3-5,15.9c-3.3,3.7-8.3,5.5-14.9,5.5c-6.6,0-11.6-1.9-14.9-5.6c-3.3-3.7-5-9-5-15.9
		V23.7h16.2v76c0,2,0.3,3.4,0.8,4.2c0.5,0.8,1.5,1.2,2.8,1.2c1.3,0,2.3-0.4,2.9-1.3c0.6-0.8,0.9-2.2,0.9-4.1v-76h16.1V97.3z"/>
	<path class="st0" d="M128.9,46.3v-5.9c0-1.5-0.3-2.7-0.8-3.6c-0.5-0.9-1.5-1.3-2.9-1.3c-0.8,0-1.5,0.2-2,0.6
		c-0.5,0.4-0.9,0.9-1.1,1.5c-0.3,0.6-0.4,1.2-0.4,1.8c0,0.6-0.1,1.2-0.1,1.7v8.4c0,1.3,0.2,2.5,0.7,3.6c0.5,1.2,1.4,2.4,2.8,3.8
		l13.7,12.9c2.7,2.6,4.3,5.2,5,7.8c0.7,2.6,1,5.4,1,8.4v11.3c0,6.9-1.7,12.1-5.2,15.9c-3.5,3.7-8.3,5.6-14.5,5.6
		c-6.5,0-11.5-1.8-14.9-5.4c-3.4-3.6-5.1-8.7-5.1-15.4v-4.8h16.2v6.8c0,1.3,0.3,2.6,0.9,3.7c0.6,1.1,1.6,1.7,3,1.7
		c1.2,0,2.1-0.5,2.7-1.4c0.6-0.9,0.9-2.2,0.9-3.9V88.7c0-2.9-0.4-5.2-1.2-6.8c-0.8-1.6-2-3.2-3.7-4.8l-12.9-11.9
		c-2-2.1-3.5-4.1-4.3-6c-0.9-1.9-1.3-4.3-1.3-7.2V41.1c0-6,1.7-10.7,5.2-13.9c3.5-3.3,8.3-4.9,14.5-4.9c6.2,0,11,1.8,14.5,5.5
		c3.5,3.7,5.2,9,5.2,15.8v2.7H128.9z"/>
	<path class="st0" d="M182.8,37.1v80.4h-16.2V37.1h-10.8V23.7h37.8v13.4H182.8z"/>
</g>
</svg>
